<svg width="161" height="28" viewBox="0 0 161 28" fill="none" xmlns="http://www.w3.org/2000/svg">
<path d="M23.0376 24.4878C23.2427 24.4878 23.3452 24.6131 23.3452 24.8638C23.3452 25.1144 23.2598 25.3651 23.0889 25.6157C22.9294 25.8664 22.6901 26.1056 22.3711 26.3335C21.585 26.8804 20.7476 27.1538 19.8589 27.1538C18.9816 27.1538 18.2695 27.0228 17.7227 26.7607C17.1758 26.4987 16.6688 26.1512 16.2017 25.7183C15.7345 25.2739 15.3073 24.7669 14.9199 24.1973C14.5326 23.6276 14.168 23.0352 13.8262 22.4199L12.8179 20.5742C11.6444 18.3411 10.6532 17.0366 9.84424 16.6606C7.53141 22.87 5.05339 26.3164 2.41016 27C2.23926 27.0456 2.05127 27.0684 1.84619 27.0684C1.62972 27.0684 1.43604 27.0342 1.26514 26.9658C1.08285 26.8975 0.929036 26.8063 0.803711 26.6924C0.541667 26.4759 0.410645 26.248 0.410645 26.0088C0.410645 25.7581 0.50179 25.5645 0.684082 25.4277C2.65511 23.9808 4.64323 20.2552 6.64844 14.251C7.81055 10.7533 8.61947 7.59733 9.0752 4.7832C9.20052 3.99707 9.26318 3.39323 9.26318 2.97168C8.79606 2.99447 8.35742 3.1141 7.94727 3.33057C7.5485 3.54704 7.20671 3.74642 6.92188 3.92871C6.63704 4.111 6.40348 4.20215 6.22119 4.20215C6.0389 4.20215 5.83952 4.14518 5.62305 4.03125C5.41797 3.91732 5.22998 3.7749 5.05908 3.604C4.66032 3.20524 4.46094 2.85205 4.46094 2.54443C4.46094 2.23682 4.55208 1.98047 4.73438 1.77539C4.92806 1.57031 5.16732 1.39372 5.45215 1.24561C5.73698 1.09749 6.05029 0.972168 6.39209 0.869629C6.74528 0.755697 7.08708 0.670247 7.41748 0.613281C8.04411 0.487956 8.58529 0.425293 9.04102 0.425293C9.49674 0.425293 9.97526 0.499349 10.4766 0.647461C10.9779 0.78418 11.4108 0.989258 11.7754 1.2627C12.5729 1.84375 12.9717 2.56152 12.9717 3.41602C12.9717 5.22754 12.4248 8.09863 11.3311 12.0293C10.9779 13.3053 10.5791 14.5814 10.1348 15.8574C12.8919 13.7269 14.561 12.4224 15.1421 11.9438C15.7345 11.4539 16.384 10.8672 17.0903 10.1836C17.7967 9.5 18.4176 8.79362 18.9531 8.06445C20.1152 6.4694 20.6963 4.86865 20.6963 3.26221C20.6963 2.66976 20.5425 2.15137 20.2349 1.70703C20.1437 1.55892 20.0981 1.4165 20.0981 1.27979C20.0981 1.14307 20.1494 1.01774 20.252 0.903809C20.3659 0.789876 20.5026 0.693034 20.6621 0.613281C20.9583 0.487956 21.3343 0.425293 21.79 0.425293C22.2572 0.425293 22.673 0.527832 23.0376 0.73291C23.4136 0.926595 23.7269 1.17725 23.9775 1.48486C24.4674 2.11149 24.7124 2.86344 24.7124 3.74072C24.7124 4.60661 24.5358 5.44971 24.1826 6.27002C23.8294 7.07894 23.3566 7.84229 22.7642 8.56006C22.1831 9.27783 21.5109 9.96143 20.7476 10.6108C19.9842 11.2603 19.1924 11.8812 18.3721 12.4736L15.877 14.251C15.0566 14.8206 14.2933 15.3903 13.5869 15.96C14.4186 16.6094 15.387 17.743 16.4922 19.3608L17.8081 21.3262C18.7537 22.7731 19.5171 23.7244 20.0981 24.1802C20.6792 24.6245 21.1577 24.8467 21.5337 24.8467C21.9211 24.8467 22.2344 24.7897 22.4736 24.6758C22.7129 24.5505 22.9009 24.4878 23.0376 24.4878ZM37.9912 22.4541C37.9912 23.5023 38.3615 24.0264 39.1021 24.0264C39.6147 24.0264 40.0363 23.9466 40.3667 23.7871C40.7085 23.6276 40.9364 23.5479 41.0503 23.5479C41.2896 23.5479 41.4092 23.6732 41.4092 23.9238C41.4092 24.9036 40.8965 25.7467 39.8711 26.4531C38.7887 27.1937 37.6836 27.376 36.5557 27C35.8151 26.738 35.2682 26.174 34.915 25.3081C34.7441 24.8638 34.6587 24.4593 34.6587 24.0947C34.6587 23.5023 34.7157 22.8757 34.8296 22.2148C33.77 24.3796 32.4541 25.8721 30.8818 26.6924C30.2552 27.0114 29.5887 27.1709 28.8823 27.1709C28.1759 27.1709 27.5607 27.0285 27.0366 26.7437C26.5239 26.4474 26.0853 26.043 25.7207 25.5303C24.9801 24.4593 24.644 23.1149 24.7124 21.4971C24.7808 19.4691 25.3789 17.481 26.5068 15.5327C27.5436 13.7098 28.8538 12.223 30.4375 11.0723C32.0212 9.89876 33.5023 9.31201 34.8809 9.31201C36.2594 9.31201 37.3703 9.94434 38.2134 11.209C38.9995 9.94434 39.6945 9.31201 40.2983 9.31201C40.9478 9.31201 41.4377 9.43164 41.7681 9.6709C42.3947 10.1266 42.6169 10.5254 42.4346 10.8672C39.5749 16.7233 38.1051 20.3691 38.0254 21.8047C38.0026 22.0098 37.9912 22.2262 37.9912 22.4541ZM28.5063 22.5225C28.5063 23.8896 28.945 24.5732 29.8223 24.5732C30.4945 24.5732 31.3205 24.0036 32.3003 22.8643C33.7358 21.1895 35.0062 18.9336 36.1113 16.0967C36.4645 15.208 36.7607 14.3193 37 13.4307C36.9544 12.6559 36.6297 12.0863 36.0259 11.7217C35.8208 11.5964 35.5132 11.5337 35.103 11.5337C34.7043 11.5337 34.2314 11.6818 33.6846 11.978C33.1491 12.2743 32.625 12.6787 32.1123 13.1914C31.611 13.7041 31.1382 14.3136 30.6938 15.02C30.2609 15.715 29.8792 16.4727 29.5488 17.293C28.8538 19.0475 28.5063 20.7907 28.5063 22.5225ZM52.9961 5.31299C52.7454 5.57503 52.4606 5.7915 52.1416 5.9624C51.8226 6.12191 51.4865 6.22445 51.1333 6.27002C50.7801 6.3042 50.444 6.24723 50.125 6.09912C49.8174 5.95101 49.5496 5.74023 49.3218 5.4668C48.8319 4.89714 48.5869 4.32178 48.5869 3.74072C48.5869 3.15967 48.6781 2.72673 48.8604 2.44189C49.054 2.14567 49.2933 1.90641 49.5781 1.72412C50.125 1.37093 50.6377 1.19434 51.1162 1.19434C51.6061 1.19434 51.9821 1.22852 52.2441 1.29688C52.5176 1.36523 52.7682 1.47917 52.9961 1.63867C53.5544 2.01465 53.8335 2.47607 53.8335 3.02295C53.8335 3.55843 53.7537 4.00846 53.5942 4.37305C53.4461 4.72624 53.2467 5.03955 52.9961 5.31299ZM49.4927 23.8042C49.7889 23.8042 49.937 23.9979 49.937 24.3853C49.937 24.8979 49.7035 25.4277 49.2363 25.9746C48.5527 26.7721 47.6356 27.1709 46.4849 27.1709C45.1632 27.1709 44.2575 26.6354 43.7676 25.5645C43.5853 25.1885 43.4941 24.7327 43.4941 24.1973C43.4941 23.6618 43.5853 23.0693 43.7676 22.4199C43.9613 21.7591 44.1948 21.0698 44.4683 20.3521C44.7531 19.6229 45.0607 18.888 45.3911 18.1475L46.2969 15.9941C46.9577 14.3877 47.2881 13.3281 47.2881 12.8154C47.2881 12.3027 47.2311 11.9666 47.1172 11.8071C47.0146 11.6362 46.9007 11.5052 46.7754 11.4141L46.4336 11.1748C46.3197 11.0951 46.2627 10.9583 46.2627 10.7646C46.2627 10.5596 46.3368 10.3659 46.4849 10.1836C46.6444 10.0013 46.8494 9.8418 47.1001 9.70508C47.6128 9.44303 48.2109 9.31201 48.8945 9.31201C50.5693 9.31201 51.4067 9.75065 51.4067 10.6279C51.4067 11.6533 51.139 12.8268 50.6035 14.1484C50.068 15.4587 49.6123 16.5182 49.2363 17.3271L48.2109 19.6855C47.459 21.4173 47.083 22.6649 47.083 23.4282C47.083 23.9295 47.3337 24.1802 47.835 24.1802C48.3249 24.1802 48.6951 24.1175 48.9458 23.9922C49.1965 23.8669 49.3787 23.8042 49.4927 23.8042ZM56.7559 24.2485C58.6699 23.6105 60.4359 23.2915 62.0537 23.2915C63.1361 23.2915 63.9735 23.5934 64.5659 24.1973C65.1014 24.7441 65.3691 25.4847 65.3691 26.4189C65.3691 26.6354 65.3008 26.8177 65.1641 26.9658C65.0273 27.1025 64.8451 27.1709 64.6172 27.1709C64.3893 27.1709 64.1501 27.1082 63.8994 26.9829C63.6488 26.8576 63.3582 26.7209 63.0278 26.5728C60.8745 25.6043 58.5047 25.6898 55.9185 26.8291C55.5881 26.9772 55.3032 27.0798 55.064 27.1367C54.8247 27.2051 54.557 27.1709 54.2607 27.0342C53.9645 26.8975 53.6854 26.7152 53.4233 26.4873C52.7739 25.9176 52.5461 25.3537 52.7397 24.7954C52.9334 24.2257 53.2467 23.6105 53.6797 22.9497C54.124 22.2775 54.631 21.611 55.2007 20.9502C55.7703 20.2894 56.3856 19.64 57.0464 19.002C58.7896 17.3727 60.0485 16.2334 60.8232 15.584C62.6006 14.0687 63.6829 13.1287 64.0703 12.7642C64.4691 12.3996 64.7368 12.109 64.8735 11.8926C63.8709 12.3483 62.5493 12.6616 60.9087 12.8325C60.4871 12.8781 60.1396 12.9009 59.8662 12.9009C58.6927 12.9009 57.8553 12.6901 57.354 12.2686C56.8641 11.847 56.6191 11.2147 56.6191 10.3716C56.6191 10.0412 56.6932 9.78483 56.8413 9.60254C56.9894 9.40885 57.1603 9.31201 57.354 9.31201C57.5591 9.31201 57.8211 9.37467 58.1401 9.5C58.4705 9.61393 58.8693 9.74495 59.3364 9.89307C60.5555 10.2804 61.6265 10.4741 62.5493 10.4741C63.4722 10.4741 64.1159 10.4285 64.4805 10.3374C64.8451 10.2463 65.1698 10.1494 65.4546 10.0469L66.2407 9.73926C66.48 9.64811 66.7192 9.60254 66.9585 9.60254C67.1978 9.60254 67.4085 9.68229 67.5908 9.8418C67.7845 9.98991 67.9611 10.1722 68.1206 10.3887C68.4624 10.8786 68.6333 11.3457 68.6333 11.79C68.6333 12.2344 68.394 12.7756 67.9155 13.4136C67.437 14.0402 66.8218 14.7067 66.0698 15.4131C65.3179 16.1081 64.4862 16.8258 63.5747 17.5664L60.8745 19.8052C58.7782 21.5825 57.4053 23.0636 56.7559 24.2485ZM56.5337 24.71C56.5679 24.6872 56.5793 24.6758 56.5679 24.6758C56.5451 24.6758 56.5337 24.6872 56.5337 24.71ZM69.0264 21.0186C69.0719 20.0273 69.2371 19.0817 69.522 18.1816C69.8068 17.2702 70.1885 16.3929 70.667 15.5498C71.1455 14.6953 71.7038 13.8921 72.3418 13.1401C72.9912 12.3768 73.6919 11.7103 74.4438 11.1406C76.0731 9.92155 77.7194 9.31201 79.3828 9.31201C81.3311 9.31201 82.6299 10.1152 83.2793 11.7217C83.5072 12.2686 83.6154 12.918 83.604 13.6699C83.5926 14.4105 83.4502 15.0998 83.1768 15.7378C82.9033 16.3644 82.5216 16.9398 82.0317 17.4639C81.5532 17.9766 80.9779 18.438 80.3057 18.8481C79.6449 19.2583 78.9214 19.6058 78.1353 19.8906C76.5174 20.4603 74.7856 20.7565 72.9399 20.7793C72.8944 20.9388 72.8659 21.1781 72.8545 21.4971C72.8431 21.8161 72.8773 22.175 72.957 22.5737C73.0368 22.9611 73.1735 23.3086 73.3672 23.6162C73.7773 24.2998 74.3698 24.6416 75.1445 24.6416C76.4661 24.6416 77.7536 24.2542 79.0068 23.4795C79.4512 23.2174 79.8101 22.9497 80.0835 22.6763C80.3683 22.3914 80.6133 22.249 80.8184 22.249C81.0234 22.249 81.2 22.3743 81.3481 22.625C81.5076 22.8643 81.5874 23.1377 81.5874 23.4453C81.5874 24.0492 81.4165 24.5732 81.0747 25.0176C79.6392 26.4531 77.5029 27.1709 74.666 27.1709C72.9912 27.1709 71.6468 26.6696 70.6328 25.667C69.4935 24.5277 68.958 22.9782 69.0264 21.0186ZM79.0068 11.585C77.8105 11.585 76.6598 12.4053 75.5547 14.0459C74.6204 15.4587 73.8685 17.1335 73.2988 19.0703C75.2015 18.8766 76.8535 18.1247 78.2549 16.8145C79.5423 15.584 80.186 14.4048 80.186 13.2769C80.186 12.1489 79.793 11.585 79.0068 11.585ZM97.686 12.542C97.3328 12.542 96.8315 12.8838 96.1821 13.5674C95.5327 14.2396 94.9688 14.8548 94.4902 15.4131L93.0376 17.1562L90.2349 20.728C89.5741 21.9813 89.0557 23.0238 88.6797 23.8555L87.7568 25.8379C87.5176 26.3278 87.3068 26.6753 87.1245 26.8804C86.9536 27.0741 86.7144 27.1709 86.4067 27.1709C86.1105 27.1709 85.82 27.1139 85.5352 27C85.2617 26.8975 85.0225 26.7607 84.8174 26.5898C84.3844 26.2253 84.168 25.8265 84.168 25.3936C84.168 25.2227 84.2933 24.8866 84.5439 24.3853L85.1934 23.001C85.3984 22.5908 85.6377 22.0667 85.9111 21.4287L86.8682 19.0874C88.2126 15.7264 88.8848 13.556 88.8848 12.5762C88.8848 12.0521 88.7139 11.6647 88.3721 11.4141L88.0303 11.1748C87.9163 11.0951 87.8594 10.9583 87.8594 10.7646C87.8594 10.5596 87.9334 10.3659 88.0815 10.1836C88.241 10.0013 88.4461 9.8418 88.6968 9.70508C89.2095 9.44303 89.7222 9.31201 90.2349 9.31201C90.759 9.31201 91.1634 9.36898 91.4482 9.48291C91.7331 9.59684 91.9723 9.75065 92.166 9.94434C92.5876 10.3431 92.7983 10.759 92.7983 11.1919C92.7983 11.6248 92.7414 12.0635 92.6274 12.5078C92.5249 12.9408 92.3882 13.3851 92.2173 13.8408C92.0578 14.2852 91.8869 14.7238 91.7046 15.1567C91.5223 15.5897 91.3571 15.9657 91.209 16.2847L90.8672 17.0195C90.776 17.2018 90.7533 17.2588 90.7988 17.1904C92.0635 15.4359 92.8952 14.3079 93.2939 13.8066L94.4902 12.3711C95.3675 11.3457 96.0568 10.6678 96.5581 10.3374C97.5721 9.65381 98.3696 9.31201 98.9507 9.31201C99.5317 9.31201 100.022 9.38607 100.42 9.53418C100.819 9.68229 101.167 9.89307 101.463 10.1665C102.09 10.7476 102.403 11.4881 102.403 12.3882C102.403 13.2882 102.198 14.2282 101.788 15.208C101.377 16.1878 101.019 16.9854 100.711 17.6006C100.415 18.2044 100.13 18.8197 99.8564 19.4463C99.002 21.349 98.5747 22.7332 98.5747 23.5991C98.5747 23.9865 98.8823 24.1802 99.4976 24.1802C99.9761 24.1802 100.409 24.0776 100.796 23.8726C101.195 23.6675 101.451 23.5649 101.565 23.5649C101.805 23.5649 101.924 23.6846 101.924 23.9238C101.924 24.9378 101.406 25.7866 100.369 26.4702C99.6742 26.9373 99.0361 27.1709 98.4551 27.1709C97.874 27.1709 97.3898 27.1082 97.0024 26.9829C96.6265 26.8576 96.2904 26.6582 95.9941 26.3848C95.3219 25.7809 94.9858 24.9378 94.9858 23.8555C94.9858 22.5339 95.4017 20.8818 96.2334 18.8994C96.8372 17.5436 97.2645 16.6151 97.5151 16.1138L98.0962 14.9004C98.4494 14.1712 98.626 13.5959 98.626 13.1743C98.626 12.7528 98.3127 12.542 97.686 12.542ZM114.246 5.31299C113.995 5.57503 113.711 5.7915 113.392 5.9624C113.073 6.12191 112.736 6.22445 112.383 6.27002C112.03 6.3042 111.694 6.24723 111.375 6.09912C111.067 5.95101 110.8 5.74023 110.572 5.4668C110.082 4.89714 109.837 4.32178 109.837 3.74072C109.837 3.15967 109.928 2.72673 110.11 2.44189C110.304 2.14567 110.543 1.90641 110.828 1.72412C111.375 1.37093 111.888 1.19434 112.366 1.19434C112.856 1.19434 113.232 1.22852 113.494 1.29688C113.768 1.36523 114.018 1.47917 114.246 1.63867C114.804 2.01465 115.083 2.47607 115.083 3.02295C115.083 3.55843 115.004 4.00846 114.844 4.37305C114.696 4.72624 114.497 5.03955 114.246 5.31299ZM110.743 23.8042C111.039 23.8042 111.187 23.9979 111.187 24.3853C111.187 24.8979 110.953 25.4277 110.486 25.9746C109.803 26.7721 108.886 27.1709 107.735 27.1709C106.413 27.1709 105.507 26.6354 105.018 25.5645C104.835 25.1885 104.744 24.7327 104.744 24.1973C104.744 23.6618 104.835 23.0693 105.018 22.4199C105.211 21.7591 105.445 21.0698 105.718 20.3521C106.003 19.6229 106.311 18.888 106.641 18.1475L107.547 15.9941C108.208 14.3877 108.538 13.3281 108.538 12.8154C108.538 12.3027 108.481 11.9666 108.367 11.8071C108.265 11.6362 108.151 11.5052 108.025 11.4141L107.684 11.1748C107.57 11.0951 107.513 10.9583 107.513 10.7646C107.513 10.5596 107.587 10.3659 107.735 10.1836C107.894 10.0013 108.099 9.8418 108.35 9.70508C108.863 9.44303 109.461 9.31201 110.145 9.31201C111.819 9.31201 112.657 9.75065 112.657 10.6279C112.657 11.6533 112.389 12.8268 111.854 14.1484C111.318 15.4587 110.862 16.5182 110.486 17.3271L109.461 19.6855C108.709 21.4173 108.333 22.6649 108.333 23.4282C108.333 23.9295 108.584 24.1802 109.085 24.1802C109.575 24.1802 109.945 24.1175 110.196 23.9922C110.446 23.8669 110.629 23.8042 110.743 23.8042ZM114.212 23.9922C114.212 23.639 114.286 23.3143 114.434 23.0181C114.594 22.7104 114.787 22.4541 115.015 22.249C115.494 21.8047 115.995 21.5825 116.519 21.5825C116.975 21.5825 117.203 21.8161 117.203 22.2832C117.203 23.4681 117.596 24.2941 118.382 24.7612C118.667 24.9321 118.963 25.0176 119.271 25.0176C119.578 25.0176 119.84 24.9834 120.057 24.915C120.273 24.8467 120.472 24.7384 120.655 24.5903C121.065 24.2599 121.27 23.8669 121.27 23.4111C121.27 22.9554 121.167 22.5396 120.962 22.1636C120.757 21.7762 120.501 21.3717 120.193 20.9502L119.219 19.583C117.852 17.7601 117.168 16.0796 117.168 14.5415C117.168 13.2655 117.71 12.109 118.792 11.0723C120.022 9.89876 121.6 9.31201 123.526 9.31201C125.212 9.31201 126.528 9.72786 127.474 10.5596C128.248 11.2318 128.636 12.0008 128.636 12.8667C128.636 13.7668 128.294 14.4845 127.61 15.02C126.995 15.4985 126.38 15.6751 125.765 15.5498C125.491 15.4928 125.28 15.3561 125.132 15.1396C124.984 14.9118 124.956 14.6554 125.047 14.3706C125.138 14.0858 125.184 13.7896 125.184 13.4819C125.184 13.1743 125.127 12.8895 125.013 12.6274C124.899 12.3654 124.745 12.1432 124.551 11.9609C124.153 11.585 123.731 11.397 123.287 11.397C122.854 11.397 122.495 11.4482 122.21 11.5508C121.925 11.6419 121.674 11.7786 121.458 11.9609C121.014 12.3711 120.792 12.8781 120.792 13.4819C120.792 14.0744 120.894 14.5871 121.099 15.02C121.304 15.453 121.555 15.8859 121.851 16.3188C122.159 16.7518 122.489 17.1904 122.842 17.6348C123.195 18.0791 123.52 18.5462 123.816 19.0361C124.534 20.1868 124.893 21.2008 124.893 22.0781C124.893 22.944 124.711 23.6732 124.346 24.2656C123.982 24.8467 123.509 25.348 122.928 25.7695C121.686 26.6924 120.296 27.1538 118.758 27.1538C117.288 27.1538 116.126 26.8006 115.271 26.0942C114.565 25.5018 114.212 24.8011 114.212 23.9922ZM139.812 22.5225C140.143 22.5225 140.308 22.7446 140.308 23.189C140.308 23.5649 140.194 23.9295 139.966 24.2827C139.659 24.9435 139.043 25.5701 138.121 26.1626C137.072 26.8348 136.019 27.1709 134.959 27.1709C133.125 27.1709 131.963 26.3506 131.473 24.71C130.892 22.7617 131.763 18.6317 134.087 12.3198C132.777 12.2059 132.065 11.978 131.951 11.6362C131.917 11.5337 131.9 11.4255 131.9 11.3115C131.9 11.1862 131.951 11.0438 132.054 10.8843C132.168 10.7248 132.31 10.571 132.481 10.4229C132.88 10.0924 133.284 9.92725 133.694 9.92725H135.044C136.275 7.04476 137.152 5.40413 137.676 5.00537C137.927 4.82308 138.206 4.73193 138.514 4.73193C138.821 4.73193 139.078 4.77181 139.283 4.85156C139.488 4.93132 139.67 5.04525 139.83 5.19336C140.194 5.53516 140.376 5.91683 140.376 6.33838C140.376 6.56624 140.308 6.82829 140.171 7.12451L138.907 9.87598H139.317C140.023 9.87598 140.593 9.87028 141.026 9.85889C141.026 9.85889 141.351 9.85319 142 9.8418C142.216 9.8304 142.484 9.82471 142.803 9.82471C143.134 9.82471 143.299 9.94434 143.299 10.1836C143.299 11.6875 141.521 12.4395 137.967 12.4395H137.83L136.668 15.4473C135.358 19.002 134.703 21.4914 134.703 22.9155C134.703 23.3143 134.794 23.6276 134.976 23.8555C135.158 24.0719 135.5 24.1802 136.001 24.1802C136.503 24.1802 136.958 24.0947 137.369 23.9238C137.779 23.7529 138.138 23.5649 138.445 23.3599C138.753 23.1434 139.015 22.9497 139.231 22.7788C139.459 22.6079 139.653 22.5225 139.812 22.5225ZM155.638 22.4541C155.638 23.5023 156.008 24.0264 156.749 24.0264C157.261 24.0264 157.683 23.9466 158.013 23.7871C158.355 23.6276 158.583 23.5479 158.697 23.5479C158.936 23.5479 159.056 23.6732 159.056 23.9238C159.056 24.9036 158.543 25.7467 157.518 26.4531C156.435 27.1937 155.33 27.376 154.202 27C153.462 26.738 152.915 26.174 152.562 25.3081C152.391 24.8638 152.305 24.4593 152.305 24.0947C152.305 23.5023 152.362 22.8757 152.476 22.2148C151.417 24.3796 150.101 25.8721 148.528 26.6924C147.902 27.0114 147.235 27.1709 146.529 27.1709C145.822 27.1709 145.207 27.0285 144.683 26.7437C144.17 26.4474 143.732 26.043 143.367 25.5303C142.627 24.4593 142.291 23.1149 142.359 21.4971C142.427 19.4691 143.025 17.481 144.153 15.5327C145.19 13.7098 146.5 12.223 148.084 11.0723C149.668 9.89876 151.149 9.31201 152.527 9.31201C153.906 9.31201 155.017 9.94434 155.86 11.209C156.646 9.94434 157.341 9.31201 157.945 9.31201C158.594 9.31201 159.084 9.43164 159.415 9.6709C160.041 10.1266 160.263 10.5254 160.081 10.8672C157.221 16.7233 155.752 20.3691 155.672 21.8047C155.649 22.0098 155.638 22.2262 155.638 22.4541ZM146.153 22.5225C146.153 23.8896 146.591 24.5732 147.469 24.5732C148.141 24.5732 148.967 24.0036 149.947 22.8643C151.382 21.1895 152.653 18.9336 153.758 16.0967C154.111 15.208 154.407 14.3193 154.646 13.4307C154.601 12.6559 154.276 12.0863 153.672 11.7217C153.467 11.5964 153.16 11.5337 152.75 11.5337C152.351 11.5337 151.878 11.6818 151.331 11.978C150.796 12.2743 150.271 12.6787 149.759 13.1914C149.257 13.7041 148.785 14.3136 148.34 15.02C147.907 15.715 147.526 16.4727 147.195 17.293C146.5 19.0475 146.153 20.7907 146.153 22.5225Z" fill="black"/>
</svg>
