<svg width="83" height="15" viewBox="0 0 83 15" fill="none" xmlns="http://www.w3.org/2000/svg">
<path d="M11.8193 12.708C11.9248 12.708 11.9775 12.7725 11.9775 12.9014C11.9775 13.0303 11.9336 13.1592 11.8457 13.2881C11.7637 13.417 11.6406 13.54 11.4766 13.6572C11.0723 13.9385 10.6416 14.0791 10.1846 14.0791C9.7334 14.0791 9.36719 14.0117 9.08594 13.877C8.80469 13.7422 8.54395 13.5635 8.30371 13.3408C8.06348 13.1123 7.84375 12.8516 7.64453 12.5586C7.44531 12.2656 7.25781 11.9609 7.08203 11.6445L6.56348 10.6953C5.95996 9.54688 5.4502 8.87598 5.03418 8.68262C3.84473 11.876 2.57031 13.6484 1.21094 14C1.12305 14.0234 1.02637 14.0352 0.920898 14.0352C0.80957 14.0352 0.709961 14.0176 0.62207 13.9824C0.52832 13.9473 0.449219 13.9004 0.384766 13.8418C0.25 13.7305 0.182617 13.6133 0.182617 13.4902C0.182617 13.3613 0.229492 13.2617 0.323242 13.1914C1.33691 12.4473 2.35938 10.5312 3.39062 7.44336C3.98828 5.64453 4.4043 4.02148 4.63867 2.57422C4.70312 2.16992 4.73535 1.85938 4.73535 1.64258C4.49512 1.6543 4.26953 1.71582 4.05859 1.82715C3.85352 1.93848 3.67773 2.04102 3.53125 2.13477C3.38477 2.22852 3.26465 2.27539 3.1709 2.27539C3.07715 2.27539 2.97461 2.24609 2.86328 2.1875C2.75781 2.12891 2.66113 2.05566 2.57324 1.96777C2.36816 1.7627 2.26562 1.58105 2.26562 1.42285C2.26562 1.26465 2.3125 1.13281 2.40625 1.02734C2.50586 0.921875 2.62891 0.831055 2.77539 0.754883C2.92188 0.678711 3.08301 0.614258 3.25879 0.561523C3.44043 0.50293 3.61621 0.458984 3.78613 0.429688C4.1084 0.365234 4.38672 0.333008 4.62109 0.333008C4.85547 0.333008 5.10156 0.371094 5.35938 0.447266C5.61719 0.517578 5.83984 0.623047 6.02734 0.763672C6.4375 1.0625 6.64258 1.43164 6.64258 1.87109C6.64258 2.80273 6.36133 4.2793 5.79883 6.30078C5.61719 6.95703 5.41211 7.61328 5.18359 8.26953C6.60156 7.17383 7.45996 6.50293 7.75879 6.25684C8.06348 6.00488 8.39746 5.70312 8.76074 5.35156C9.12402 5 9.44336 4.63672 9.71875 4.26172C10.3164 3.44141 10.6152 2.61816 10.6152 1.79199C10.6152 1.4873 10.5361 1.2207 10.3779 0.992188C10.3311 0.916016 10.3076 0.842773 10.3076 0.772461C10.3076 0.702148 10.334 0.637695 10.3867 0.579102C10.4453 0.520508 10.5156 0.470703 10.5977 0.429688C10.75 0.365234 10.9434 0.333008 11.1777 0.333008C11.418 0.333008 11.6318 0.385742 11.8193 0.491211C12.0127 0.59082 12.1738 0.719727 12.3027 0.87793C12.5547 1.2002 12.6807 1.58691 12.6807 2.03809C12.6807 2.4834 12.5898 2.91699 12.4082 3.33887C12.2266 3.75488 11.9834 4.14746 11.6787 4.5166C11.3799 4.88574 11.0342 5.2373 10.6416 5.57129C10.249 5.90527 9.8418 6.22461 9.41992 6.5293L8.13672 7.44336C7.71484 7.73633 7.32227 8.0293 6.95898 8.32227C7.38672 8.65625 7.88477 9.23926 8.45312 10.0713L9.12988 11.082C9.61621 11.8262 10.0088 12.3154 10.3076 12.5498C10.6064 12.7783 10.8525 12.8926 11.0459 12.8926C11.2451 12.8926 11.4062 12.8633 11.5293 12.8047C11.6523 12.7402 11.749 12.708 11.8193 12.708ZM19.5098 11.6621C19.5098 12.2012 19.7002 12.4707 20.0811 12.4707C20.3447 12.4707 20.5615 12.4297 20.7314 12.3477C20.9072 12.2656 21.0244 12.2246 21.083 12.2246C21.2061 12.2246 21.2676 12.2891 21.2676 12.418C21.2676 12.9219 21.0039 13.3555 20.4766 13.7188C19.9199 14.0996 19.3516 14.1934 18.7715 14C18.3906 13.8652 18.1094 13.5752 17.9277 13.1299C17.8398 12.9014 17.7959 12.6934 17.7959 12.5059C17.7959 12.2012 17.8252 11.8789 17.8838 11.5391C17.3389 12.6523 16.6621 13.4199 15.8535 13.8418C15.5312 14.0059 15.1885 14.0879 14.8252 14.0879C14.4619 14.0879 14.1455 14.0146 13.876 13.8682C13.6123 13.7158 13.3867 13.5078 13.1992 13.2441C12.8184 12.6934 12.6455 12.002 12.6807 11.1699C12.7158 10.127 13.0234 9.10449 13.6035 8.10254C14.1367 7.16504 14.8105 6.40039 15.625 5.80859C16.4395 5.20508 17.2012 4.90332 17.9102 4.90332C18.6191 4.90332 19.1904 5.22852 19.624 5.87891C20.0283 5.22852 20.3857 4.90332 20.6963 4.90332C21.0303 4.90332 21.2822 4.96484 21.4521 5.08789C21.7744 5.32227 21.8887 5.52734 21.7949 5.70312C20.3242 8.71484 19.5684 10.5898 19.5273 11.3281C19.5156 11.4336 19.5098 11.5449 19.5098 11.6621ZM14.6318 11.6973C14.6318 12.4004 14.8574 12.752 15.3086 12.752C15.6543 12.752 16.0791 12.459 16.583 11.873C17.3213 11.0117 17.9746 9.85156 18.543 8.39258C18.7246 7.93555 18.877 7.47852 19 7.02148C18.9766 6.62305 18.8096 6.33008 18.499 6.14258C18.3936 6.07812 18.2354 6.0459 18.0244 6.0459C17.8193 6.0459 17.5762 6.12207 17.2949 6.27441C17.0195 6.42676 16.75 6.63477 16.4863 6.89844C16.2285 7.16211 15.9854 7.47559 15.7568 7.83887C15.5342 8.19629 15.3379 8.58594 15.168 9.00781C14.8105 9.91016 14.6318 10.8066 14.6318 11.6973ZM27.2266 2.84668C27.0977 2.98145 26.9512 3.09277 26.7871 3.18066C26.623 3.2627 26.4502 3.31543 26.2686 3.33887C26.0869 3.35645 25.9141 3.32715 25.75 3.25098C25.5918 3.1748 25.4541 3.06641 25.3369 2.92578C25.085 2.63281 24.959 2.33691 24.959 2.03809C24.959 1.73926 25.0059 1.5166 25.0996 1.37012C25.1992 1.21777 25.3223 1.09473 25.4688 1.00098C25.75 0.819336 26.0137 0.728516 26.2598 0.728516C26.5117 0.728516 26.7051 0.746094 26.8398 0.78125C26.9805 0.816406 27.1094 0.875 27.2266 0.957031C27.5137 1.15039 27.6572 1.3877 27.6572 1.66895C27.6572 1.94434 27.6162 2.17578 27.5342 2.36328C27.458 2.54492 27.3555 2.70605 27.2266 2.84668ZM25.4248 12.3564C25.5771 12.3564 25.6533 12.4561 25.6533 12.6553C25.6533 12.9189 25.5332 13.1914 25.293 13.4727C24.9414 13.8828 24.4697 14.0879 23.8779 14.0879C23.1982 14.0879 22.7324 13.8125 22.4805 13.2617C22.3867 13.0684 22.3398 12.834 22.3398 12.5586C22.3398 12.2832 22.3867 11.9785 22.4805 11.6445C22.5801 11.3047 22.7002 10.9502 22.8408 10.5811C22.9873 10.2061 23.1455 9.82812 23.3154 9.44727L23.7812 8.33984C24.1211 7.51367 24.291 6.96875 24.291 6.70508C24.291 6.44141 24.2617 6.26855 24.2031 6.18652C24.1504 6.09863 24.0918 6.03125 24.0273 5.98438L23.8516 5.86133C23.793 5.82031 23.7637 5.75 23.7637 5.65039C23.7637 5.54492 23.8018 5.44531 23.8779 5.35156C23.96 5.25781 24.0654 5.17578 24.1943 5.10547C24.458 4.9707 24.7656 4.90332 25.1172 4.90332C25.9785 4.90332 26.4092 5.12891 26.4092 5.58008C26.4092 6.10742 26.2715 6.71094 25.9961 7.39062C25.7207 8.06445 25.4863 8.60938 25.293 9.02539L24.7656 10.2383C24.3789 11.1289 24.1855 11.7705 24.1855 12.1631C24.1855 12.4209 24.3145 12.5498 24.5723 12.5498C24.8242 12.5498 25.0146 12.5176 25.1436 12.4531C25.2725 12.3887 25.3662 12.3564 25.4248 12.3564ZM29.1602 12.585C30.1445 12.2568 31.0527 12.0928 31.8848 12.0928C32.4414 12.0928 32.8721 12.248 33.1768 12.5586C33.4521 12.8398 33.5898 13.2207 33.5898 13.7012C33.5898 13.8125 33.5547 13.9062 33.4844 13.9824C33.4141 14.0527 33.3203 14.0879 33.2031 14.0879C33.0859 14.0879 32.9629 14.0557 32.834 13.9912C32.7051 13.9268 32.5557 13.8564 32.3857 13.7803C31.2783 13.2822 30.0596 13.3262 28.7295 13.9121C28.5596 13.9883 28.4131 14.041 28.29 14.0703C28.167 14.1055 28.0293 14.0879 27.877 14.0176C27.7246 13.9473 27.5811 13.8535 27.4463 13.7363C27.1123 13.4434 26.9951 13.1533 27.0947 12.8662C27.1943 12.5732 27.3555 12.2568 27.5781 11.917C27.8066 11.5713 28.0674 11.2285 28.3604 10.8887C28.6533 10.5488 28.9697 10.2148 29.3096 9.88672C30.2061 9.04883 30.8535 8.46289 31.252 8.12891C32.166 7.34961 32.7227 6.86621 32.9219 6.67871C33.127 6.49121 33.2646 6.3418 33.335 6.23047C32.8193 6.46484 32.1396 6.62598 31.2959 6.71387C31.0791 6.7373 30.9004 6.74902 30.7598 6.74902C30.1562 6.74902 29.7256 6.64062 29.4678 6.42383C29.2158 6.20703 29.0898 5.88184 29.0898 5.44824C29.0898 5.27832 29.1279 5.14648 29.2041 5.05273C29.2803 4.95312 29.3682 4.90332 29.4678 4.90332C29.5732 4.90332 29.708 4.93555 29.8721 5C30.042 5.05859 30.2471 5.12598 30.4873 5.20215C31.1143 5.40137 31.665 5.50098 32.1396 5.50098C32.6143 5.50098 32.9453 5.47754 33.1328 5.43066C33.3203 5.38379 33.4873 5.33398 33.6338 5.28125L34.0381 5.12305C34.1611 5.07617 34.2842 5.05273 34.4072 5.05273C34.5303 5.05273 34.6387 5.09375 34.7324 5.17578C34.832 5.25195 34.9229 5.3457 35.0049 5.45703C35.1807 5.70898 35.2686 5.94922 35.2686 6.17773C35.2686 6.40625 35.1455 6.68457 34.8994 7.0127C34.6533 7.33496 34.3369 7.67773 33.9502 8.04102C33.5635 8.39844 33.1357 8.76758 32.667 9.14844L31.2783 10.2998C30.2002 11.2139 29.4941 11.9756 29.1602 12.585ZM29.0459 12.8223C29.0635 12.8105 29.0693 12.8047 29.0635 12.8047C29.0518 12.8047 29.0459 12.8105 29.0459 12.8223ZM35.4707 10.9238C35.4941 10.4141 35.5791 9.92773 35.7256 9.46484C35.8721 8.99609 36.0684 8.54492 36.3145 8.11133C36.5605 7.67188 36.8477 7.25879 37.1758 6.87207C37.5098 6.47949 37.8701 6.13672 38.2568 5.84375C39.0947 5.2168 39.9414 4.90332 40.7969 4.90332C41.7988 4.90332 42.4668 5.31641 42.8008 6.14258C42.918 6.42383 42.9736 6.75781 42.9678 7.14453C42.9619 7.52539 42.8887 7.87988 42.748 8.20801C42.6074 8.53027 42.4111 8.82617 42.1592 9.0957C41.9131 9.35938 41.6172 9.59668 41.2715 9.80762C40.9316 10.0186 40.5596 10.1973 40.1553 10.3438C39.3232 10.6367 38.4326 10.7891 37.4834 10.8008C37.46 10.8828 37.4453 11.0059 37.4395 11.1699C37.4336 11.334 37.4512 11.5186 37.4922 11.7236C37.5332 11.9229 37.6035 12.1016 37.7031 12.2598C37.9141 12.6113 38.2188 12.7871 38.6172 12.7871C39.2969 12.7871 39.959 12.5879 40.6035 12.1895C40.832 12.0547 41.0166 11.917 41.1572 11.7764C41.3037 11.6299 41.4297 11.5566 41.5352 11.5566C41.6406 11.5566 41.7314 11.6211 41.8076 11.75C41.8896 11.873 41.9307 12.0137 41.9307 12.1719C41.9307 12.4824 41.8428 12.752 41.667 12.9805C40.9287 13.7188 39.8301 14.0879 38.3711 14.0879C37.5098 14.0879 36.8184 13.8301 36.2969 13.3145C35.7109 12.7285 35.4355 11.9316 35.4707 10.9238ZM40.6035 6.07227C39.9883 6.07227 39.3965 6.49414 38.8281 7.33789C38.3477 8.06445 37.9609 8.92578 37.668 9.92188C38.6465 9.82227 39.4961 9.43555 40.2168 8.76172C40.8789 8.12891 41.21 7.52246 41.21 6.94238C41.21 6.3623 41.0078 6.07227 40.6035 6.07227ZM50.21 6.56445C50.0283 6.56445 49.7705 6.74023 49.4365 7.0918C49.1025 7.4375 48.8125 7.75391 48.5664 8.04102L47.8193 8.9375L46.3779 10.7744C46.0381 11.4189 45.7715 11.9551 45.5781 12.3828L45.1035 13.4023C44.9805 13.6543 44.8721 13.833 44.7783 13.9385C44.6904 14.0381 44.5674 14.0879 44.4092 14.0879C44.2568 14.0879 44.1074 14.0586 43.9609 14C43.8203 13.9473 43.6973 13.877 43.5918 13.7891C43.3691 13.6016 43.2578 13.3965 43.2578 13.1738C43.2578 13.0859 43.3223 12.9131 43.4512 12.6553L43.7852 11.9434C43.8906 11.7324 44.0137 11.4629 44.1543 11.1348L44.6465 9.93066C45.3379 8.20215 45.6836 7.08594 45.6836 6.58203C45.6836 6.3125 45.5957 6.11328 45.4199 5.98438L45.2441 5.86133C45.1855 5.82031 45.1562 5.75 45.1562 5.65039C45.1562 5.54492 45.1943 5.44531 45.2705 5.35156C45.3525 5.25781 45.458 5.17578 45.5869 5.10547C45.8506 4.9707 46.1143 4.90332 46.3779 4.90332C46.6475 4.90332 46.8555 4.93262 47.002 4.99121C47.1484 5.0498 47.2715 5.12891 47.3711 5.22852C47.5879 5.43359 47.6963 5.64746 47.6963 5.87012C47.6963 6.09277 47.667 6.31836 47.6084 6.54688C47.5557 6.76953 47.4854 6.99805 47.3975 7.23242C47.3154 7.46094 47.2275 7.68652 47.1338 7.90918C47.04 8.13184 46.9551 8.3252 46.8789 8.48926L46.7031 8.86719C46.6562 8.96094 46.6445 8.99023 46.668 8.95508C47.3184 8.05273 47.7461 7.47266 47.9512 7.21484L48.5664 6.47656C49.0176 5.94922 49.3721 5.60059 49.6299 5.43066C50.1514 5.0791 50.5615 4.90332 50.8604 4.90332C51.1592 4.90332 51.4111 4.94141 51.6162 5.01758C51.8213 5.09375 52 5.20215 52.1523 5.34277C52.4746 5.6416 52.6357 6.02246 52.6357 6.48535C52.6357 6.94824 52.5303 7.43164 52.3193 7.93555C52.1084 8.43945 51.9238 8.84961 51.7656 9.16602C51.6133 9.47656 51.4668 9.79297 51.3262 10.1152C50.8867 11.0938 50.667 11.8057 50.667 12.251C50.667 12.4502 50.8252 12.5498 51.1416 12.5498C51.3877 12.5498 51.6104 12.4971 51.8096 12.3916C52.0146 12.2861 52.1465 12.2334 52.2051 12.2334C52.3281 12.2334 52.3896 12.2949 52.3896 12.418C52.3896 12.9395 52.123 13.376 51.5898 13.7275C51.2324 13.9678 50.9043 14.0879 50.6055 14.0879C50.3066 14.0879 50.0576 14.0557 49.8584 13.9912C49.665 13.9268 49.4922 13.8242 49.3398 13.6836C48.9941 13.373 48.8213 12.9395 48.8213 12.3828C48.8213 11.7031 49.0352 10.8535 49.4629 9.83398C49.7734 9.13672 49.9932 8.65918 50.1221 8.40137L50.4209 7.77734C50.6025 7.40234 50.6934 7.10645 50.6934 6.88965C50.6934 6.67285 50.5322 6.56445 50.21 6.56445ZM58.7266 2.84668C58.5977 2.98145 58.4512 3.09277 58.2871 3.18066C58.123 3.2627 57.9502 3.31543 57.7686 3.33887C57.5869 3.35645 57.4141 3.32715 57.25 3.25098C57.0918 3.1748 56.9541 3.06641 56.8369 2.92578C56.585 2.63281 56.459 2.33691 56.459 2.03809C56.459 1.73926 56.5059 1.5166 56.5996 1.37012C56.6992 1.21777 56.8223 1.09473 56.9688 1.00098C57.25 0.819336 57.5137 0.728516 57.7598 0.728516C58.0117 0.728516 58.2051 0.746094 58.3398 0.78125C58.4805 0.816406 58.6094 0.875 58.7266 0.957031C59.0137 1.15039 59.1572 1.3877 59.1572 1.66895C59.1572 1.94434 59.1162 2.17578 59.0342 2.36328C58.958 2.54492 58.8555 2.70605 58.7266 2.84668ZM56.9248 12.3564C57.0771 12.3564 57.1533 12.4561 57.1533 12.6553C57.1533 12.9189 57.0332 13.1914 56.793 13.4727C56.4414 13.8828 55.9697 14.0879 55.3779 14.0879C54.6982 14.0879 54.2324 13.8125 53.9805 13.2617C53.8867 13.0684 53.8398 12.834 53.8398 12.5586C53.8398 12.2832 53.8867 11.9785 53.9805 11.6445C54.0801 11.3047 54.2002 10.9502 54.3408 10.5811C54.4873 10.2061 54.6455 9.82812 54.8154 9.44727L55.2812 8.33984C55.6211 7.51367 55.791 6.96875 55.791 6.70508C55.791 6.44141 55.7617 6.26855 55.7031 6.18652C55.6504 6.09863 55.5918 6.03125 55.5273 5.98438L55.3516 5.86133C55.293 5.82031 55.2637 5.75 55.2637 5.65039C55.2637 5.54492 55.3018 5.44531 55.3779 5.35156C55.46 5.25781 55.5654 5.17578 55.6943 5.10547C55.958 4.9707 56.2656 4.90332 56.6172 4.90332C57.4785 4.90332 57.9092 5.12891 57.9092 5.58008C57.9092 6.10742 57.7715 6.71094 57.4961 7.39062C57.2207 8.06445 56.9863 8.60938 56.793 9.02539L56.2656 10.2383C55.8789 11.1289 55.6855 11.7705 55.6855 12.1631C55.6855 12.4209 55.8145 12.5498 56.0723 12.5498C56.3242 12.5498 56.5146 12.5176 56.6436 12.4531C56.7725 12.3887 56.8662 12.3564 56.9248 12.3564ZM58.709 12.4531C58.709 12.2715 58.7471 12.1045 58.8232 11.9521C58.9053 11.7939 59.0049 11.6621 59.1221 11.5566C59.3682 11.3281 59.626 11.2139 59.8955 11.2139C60.1299 11.2139 60.2471 11.334 60.2471 11.5742C60.2471 12.1836 60.4492 12.6084 60.8535 12.8486C61 12.9365 61.1523 12.9805 61.3105 12.9805C61.4688 12.9805 61.6035 12.9629 61.7148 12.9277C61.8262 12.8926 61.9287 12.8369 62.0225 12.7607C62.2334 12.5908 62.3389 12.3887 62.3389 12.1543C62.3389 11.9199 62.2861 11.7061 62.1807 11.5127C62.0752 11.3135 61.9434 11.1055 61.7852 10.8887L61.2842 10.1855C60.5811 9.24805 60.2295 8.38379 60.2295 7.59277C60.2295 6.93652 60.5078 6.3418 61.0645 5.80859C61.6973 5.20508 62.5088 4.90332 63.499 4.90332C64.3662 4.90332 65.043 5.11719 65.5293 5.54492C65.9277 5.89062 66.127 6.28613 66.127 6.73145C66.127 7.19434 65.9512 7.56348 65.5996 7.83887C65.2832 8.08496 64.9668 8.17578 64.6504 8.11133C64.5098 8.08203 64.4014 8.01172 64.3252 7.90039C64.249 7.7832 64.2344 7.65137 64.2812 7.50488C64.3281 7.3584 64.3516 7.20605 64.3516 7.04785C64.3516 6.88965 64.3223 6.74316 64.2637 6.6084C64.2051 6.47363 64.126 6.35938 64.0264 6.26562C63.8213 6.07227 63.6045 5.97559 63.376 5.97559C63.1533 5.97559 62.9688 6.00195 62.8223 6.05469C62.6758 6.10156 62.5469 6.17188 62.4355 6.26562C62.207 6.47656 62.0928 6.7373 62.0928 7.04785C62.0928 7.35254 62.1455 7.61621 62.251 7.83887C62.3564 8.06152 62.4854 8.28418 62.6377 8.50684C62.7959 8.72949 62.9658 8.95508 63.1475 9.18359C63.3291 9.41211 63.4961 9.65234 63.6484 9.9043C64.0176 10.4961 64.2021 11.0176 64.2021 11.4688C64.2021 11.9141 64.1084 12.2891 63.9209 12.5938C63.7334 12.8926 63.4902 13.1504 63.1914 13.3672C62.5527 13.8418 61.8379 14.0791 61.0469 14.0791C60.291 14.0791 59.6934 13.8975 59.2539 13.5342C58.8906 13.2295 58.709 12.8691 58.709 12.4531ZM71.875 11.6973C72.0449 11.6973 72.1299 11.8115 72.1299 12.04C72.1299 12.2334 72.0713 12.4209 71.9541 12.6025C71.7959 12.9424 71.4795 13.2646 71.0049 13.5693C70.4658 13.915 69.9238 14.0879 69.3789 14.0879C68.4355 14.0879 67.8379 13.666 67.5859 12.8223C67.2871 11.8203 67.7354 9.69629 68.9307 6.4502C68.2568 6.3916 67.8906 6.27441 67.832 6.09863C67.8145 6.0459 67.8057 5.99023 67.8057 5.93164C67.8057 5.86719 67.832 5.79395 67.8848 5.71191C67.9434 5.62988 68.0166 5.55078 68.1045 5.47461C68.3096 5.30469 68.5176 5.21973 68.7285 5.21973H69.4229C70.0557 3.7373 70.5068 2.89355 70.7764 2.68848C70.9053 2.59473 71.0488 2.54785 71.207 2.54785C71.3652 2.54785 71.4971 2.56836 71.6025 2.60938C71.708 2.65039 71.8018 2.70898 71.8838 2.78516C72.0713 2.96094 72.165 3.15723 72.165 3.37402C72.165 3.49121 72.1299 3.62598 72.0596 3.77832L71.4092 5.19336H71.6201C71.9834 5.19336 72.2764 5.19043 72.499 5.18457C72.499 5.18457 72.666 5.18164 73 5.17578C73.1113 5.16992 73.249 5.16699 73.4131 5.16699C73.583 5.16699 73.668 5.22852 73.668 5.35156C73.668 6.125 72.7539 6.51172 70.9258 6.51172H70.8555L70.2578 8.05859C69.584 9.88672 69.2471 11.167 69.2471 11.8994C69.2471 12.1045 69.2939 12.2656 69.3877 12.3828C69.4814 12.4941 69.6572 12.5498 69.915 12.5498C70.1729 12.5498 70.4072 12.5059 70.6182 12.418C70.8291 12.3301 71.0137 12.2334 71.1719 12.1279C71.3301 12.0166 71.4648 11.917 71.5762 11.8291C71.6934 11.7412 71.793 11.6973 71.875 11.6973ZM80.0137 11.6621C80.0137 12.2012 80.2041 12.4707 80.585 12.4707C80.8486 12.4707 81.0654 12.4297 81.2354 12.3477C81.4111 12.2656 81.5283 12.2246 81.5869 12.2246C81.71 12.2246 81.7715 12.2891 81.7715 12.418C81.7715 12.9219 81.5078 13.3555 80.9805 13.7188C80.4238 14.0996 79.8555 14.1934 79.2754 14C78.8945 13.8652 78.6133 13.5752 78.4316 13.1299C78.3438 12.9014 78.2998 12.6934 78.2998 12.5059C78.2998 12.2012 78.3291 11.8789 78.3877 11.5391C77.8428 12.6523 77.166 13.4199 76.3574 13.8418C76.0352 14.0059 75.6924 14.0879 75.3291 14.0879C74.9658 14.0879 74.6494 14.0146 74.3799 13.8682C74.1162 13.7158 73.8906 13.5078 73.7031 13.2441C73.3223 12.6934 73.1494 12.002 73.1846 11.1699C73.2197 10.127 73.5273 9.10449 74.1074 8.10254C74.6406 7.16504 75.3145 6.40039 76.1289 5.80859C76.9434 5.20508 77.7051 4.90332 78.4141 4.90332C79.123 4.90332 79.6943 5.22852 80.1279 5.87891C80.5322 5.22852 80.8896 4.90332 81.2002 4.90332C81.5342 4.90332 81.7861 4.96484 81.9561 5.08789C82.2783 5.32227 82.3926 5.52734 82.2988 5.70312C80.8281 8.71484 80.0723 10.5898 80.0312 11.3281C80.0195 11.4336 80.0137 11.5449 80.0137 11.6621ZM75.1357 11.6973C75.1357 12.4004 75.3613 12.752 75.8125 12.752C76.1582 12.752 76.583 12.459 77.0869 11.873C77.8252 11.0117 78.4785 9.85156 79.0469 8.39258C79.2285 7.93555 79.3809 7.47852 79.5039 7.02148C79.4805 6.62305 79.3135 6.33008 79.0029 6.14258C78.8975 6.07812 78.7393 6.0459 78.5283 6.0459C78.3232 6.0459 78.0801 6.12207 77.7988 6.27441C77.5234 6.42676 77.2539 6.63477 76.9902 6.89844C76.7324 7.16211 76.4893 7.47559 76.2607 7.83887C76.0381 8.19629 75.8418 8.58594 75.6719 9.00781C75.3145 9.91016 75.1357 10.8066 75.1357 11.6973Z" fill="#999999"/>
</svg>
