<svg width="24" height="24" viewBox="0 0 24 24" fill="none" xmlns="http://www.w3.org/2000/svg">
<path d="M4 19V17H6V10C6 8.61668 6.41667 7.38751 7.25 6.31251C8.08333 5.23751 9.16667 4.53335 10.5 4.20001V3.50001C10.5 3.08335 10.6458 2.72918 10.9375 2.43751C11.2292 2.14585 11.5833 2.00001 12 2.00001C12.4167 2.00001 12.7708 2.14585 13.0625 2.43751C13.3542 2.72918 13.5 3.08335 13.5 3.50001V4.20001C14.8333 4.53335 15.9167 5.23751 16.75 6.31251C17.5833 7.38751 18 8.61668 18 10V17H20V19H4ZM12 22C11.45 22 10.9792 21.8042 10.5875 21.4125C10.1958 21.0208 10 20.55 10 20H14C14 20.55 13.8042 21.0208 13.4125 21.4125C13.0208 21.8042 12.55 22 12 22ZM2 10C2 8.33335 2.37083 6.80418 3.1125 5.41251C3.85417 4.02085 4.85 2.86668 6.1 1.95001L7.275 3.55001C6.275 4.28335 5.47917 5.20835 4.8875 6.32501C4.29583 7.44168 4 8.66668 4 10H2ZM20 10C20 8.66668 19.7042 7.44168 19.1125 6.32501C18.5208 5.20835 17.725 4.28335 16.725 3.55001L17.9 1.95001C19.15 2.86668 20.1458 4.02085 20.8875 5.41251C21.6292 6.80418 22 8.33335 22 10H20Z" fill="#ECA72C"/>
</svg>
