<svg width="40" height="40" viewBox="0 0 40 40" fill="none" xmlns="http://www.w3.org/2000/svg">
<path d="M1.66699 35L20.0003 3.33334L38.3337 35H1.66699ZM7.41699 31.6667H32.5837L20.0003 10L7.41699 31.6667ZM20.0003 30C20.4725 30 20.8684 29.8403 21.1878 29.5208C21.5073 29.2014 21.667 28.8056 21.667 28.3333C21.667 27.8611 21.5073 27.4653 21.1878 27.1458C20.8684 26.8264 20.4725 26.6667 20.0003 26.6667C19.5281 26.6667 19.1323 26.8264 18.8128 27.1458C18.4934 27.4653 18.3337 27.8611 18.3337 28.3333C18.3337 28.8056 18.4934 29.2014 18.8128 29.5208C19.1323 29.8403 19.5281 30 20.0003 30ZM18.3337 25H21.667V16.6667H18.3337V25Z" fill="#685D62"/>
</svg>
